<?xml version="1.0" encoding="utf-8"?>
<!-- Generator: Adobe Illustrator 22.0.1, SVG Export Plug-In . SVG Version: 6.00 Build 0)  -->
<svg version="1.1" xmlns="http://www.w3.org/2000/svg" xmlns:xlink="http://www.w3.org/1999/xlink" x="0px" y="0px"
	 viewBox="0 0 612 792" style="enable-background:new 0 0 612 792;" xml:space="preserve">
<style type="text/css">
	.st0{display:none;}
	.st1{display:inline;}
	.st2{clip-path:url(#SVGID_2_);}
	.st3{clip-path:url(#SVGID_4_);fill:url(#SVGID_5_);}
	.st4{clip-path:url(#SVGID_2_);fill:none;stroke:#6D6E71;stroke-width:1.4058;stroke-miterlimit:10;}
	.st5{clip-path:url(#SVGID_7_);fill:#EC008C;}
	.st6{clip-path:url(#SVGID_7_);}
	.st7{fill:#FFFFFF;}
	.st8{font-family:'AgencyFB-Bold';}
	.st9{font-size:9.8403px;}
	.st10{clip-path:url(#SVGID_2_);fill:#F26522;}
	.st11{fill:url(#SVGID_8_);stroke:#6D6E71;stroke-width:3;stroke-miterlimit:10;}
	.st12{fill:#EC008C;}
	.st13{font-size:21px;}
	.st14{fill:none;}
	.st15{fill:#F26522;}
</style>
<g id="sample" class="st0">
	<g class="st1">
		<g>
			<defs>
				<rect id="SVGID_1_" x="198.9" y="253.8" width="286.8" height="371.1"/>
			</defs>
			<clipPath id="SVGID_2_">
				<use xlink:href="#SVGID_1_"  style="overflow:visible;"/>
			</clipPath>
			<g class="st2">
				<defs>
					<polygon id="SVGID_3_" points="356.1,369.4 286.4,409.5 286.4,489.6 356.1,529.9 425.8,490.3 425.8,409.5 					"/>
				</defs>
				<clipPath id="SVGID_4_">
					<use xlink:href="#SVGID_3_"  style="overflow:visible;"/>
				</clipPath>
				
					<linearGradient id="SVGID_5_" gradientUnits="userSpaceOnUse" x1="2.4838" y1="-9.343388e-05" x2="2.9524" y2="-9.343388e-05" gradientTransform="matrix(9 359 359 -9 332.2992 -501.9267)">
					<stop  offset="0" style="stop-color:#FFF33B"/>
					<stop  offset="5.948725e-02" style="stop-color:#FFE029"/>
					<stop  offset="0.1303" style="stop-color:#FFD218"/>
					<stop  offset="0.2032" style="stop-color:#FEC90F"/>
					<stop  offset="0.2809" style="stop-color:#FDC70C"/>
					<stop  offset="0.6685" style="stop-color:#F3903F"/>
					<stop  offset="0.8876" style="stop-color:#ED683C"/>
					<stop  offset="1" style="stop-color:#E93E3A"/>
				</linearGradient>
				<polygon class="st3" points="425.7,366 429.8,529.8 286.5,533.4 282.4,369.5 				"/>
			</g>
			<polygon class="st4" points="356.1,369.4 286.4,409.5 286.4,489.6 356.1,529.9 425.8,490.3 425.8,409.5 			"/>
			<g class="st2">
				<defs>
					<rect id="SVGID_6_" x="198.9" y="253.8" width="286.8" height="371.1"/>
				</defs>
				<clipPath id="SVGID_7_">
					<use xlink:href="#SVGID_6_"  style="overflow:visible;"/>
				</clipPath>
				<path class="st5" d="M319.4,423.3c-0.5-0.1-0.9-0.2-1.1-0.2c-1.5,0-2.3,1-2.3,2.9v7.4h-3.2v-13.6h3v3.2h0.1
					c0.5-2.4,1.7-3.6,3.6-3.6V423.3z"/>
				<path class="st5" d="M340.1,427.4h-5.7c0.1,1.5,0.2,2.4,0.4,2.9c0.2,0.5,0.6,0.7,1.1,0.7c0.7,0,1.1-0.5,1.1-1.6h2.8
					c-0.1,1.4-0.5,2.5-1.3,3.3c-0.7,0.8-1.7,1.1-2.9,1.1c-1.5,0-2.7-0.6-3.5-1.9c-0.8-1.2-1.2-3.1-1.2-5.4c0-2.1,0.4-3.8,1.3-5.1
					c0.9-1.3,2-1.9,3.5-1.9c1,0,1.9,0.4,2.5,1.1c0.7,0.7,1.1,1.6,1.3,2.7C340,424.2,340.1,425.6,340.1,427.4 M337.1,425.2
					c0-1.2-0.1-2-0.3-2.6c-0.2-0.5-0.5-0.8-0.9-0.8c-0.5,0-0.9,0.3-1.1,0.8c-0.2,0.5-0.3,1.4-0.3,2.6H337.1z"/>
				<path class="st5" d="M350.9,433.4h-3.2v-2.3h-0.1c-0.5,1.8-1.4,2.7-2.6,2.7c-0.9,0-1.6-0.5-2.3-1.5c-0.7-1-1-2.9-1-5.5
					c0-4.9,1.1-7.3,3.3-7.3c1.2,0,2.1,0.9,2.5,2.8h0.1v-2.4h3.2V433.4z M346.3,422.8c-0.8,0-1.1,1.2-1.1,3.5c0,1.4,0.1,2.4,0.3,3
					c0.2,0.6,0.6,0.9,1,0.9c0.5,0,0.8-0.3,1-0.9c0.2-0.6,0.3-1.5,0.3-2.7c0-1.3-0.1-2.3-0.3-2.9
					C347.2,423.1,346.8,422.8,346.3,422.8L346.3,422.8z"/>
				<path class="st5" d="M362.5,433.4h-3.2v-7.5c0-1.7-0.4-2.5-1.3-2.5c-0.4,0-0.7,0.2-1,0.6c-0.2,0.4-0.3,1-0.3,1.7v7.7h-3.2v-21.2
					h3.2v10.1h0.1c0.9-2,2-2.9,3.1-2.9c0.8,0,1.5,0.5,2,1.4c0.5,0.9,0.7,2.2,0.7,3.9V433.4z"/>
				<path class="st5" d="M364.5,426.7c0-2.4,0.4-4.2,1.2-5.4c0.8-1.3,1.9-1.9,3.4-1.9c1.5,0,2.6,0.6,3.4,1.9c0.8,1.2,1.2,3,1.2,5.4
					c0,2.3-0.4,4.1-1.2,5.3c-0.8,1.2-1.9,1.8-3.4,1.8c-1.5,0-2.7-0.6-3.5-1.8C364.9,430.8,364.5,429,364.5,426.7 M370.5,426.7
					c0-1.5-0.1-2.5-0.2-3.1c-0.2-0.6-0.5-0.9-1.1-0.9c-0.5,0-0.9,0.3-1.1,0.9c-0.2,0.6-0.3,1.5-0.3,2.8c0,1.6,0.1,2.7,0.3,3.4
					c0.2,0.7,0.5,1,1.1,1c0.5,0,0.9-0.3,1.1-0.9C370.4,429.1,370.5,428.1,370.5,426.7"/>
				<path class="st5" d="M382.5,423.3c-0.5-0.1-0.9-0.2-1.1-0.2c-1.5,0-2.3,1-2.3,2.9v7.4h-3.2v-13.6h3v3.2h0.1
					c0.5-2.4,1.7-3.6,3.6-3.6V423.3z"/>
				<path class="st5" d="M390,423.5c-0.9-0.8-1.6-1.3-2.1-1.3c-0.6,0-0.9,0.3-0.9,0.9c0,0.4,0.5,0.9,1.5,1.5c1,0.6,1.7,1.3,2.2,2.1
					c0.5,0.8,0.7,1.7,0.7,2.8c0,1.2-0.3,2.2-1,3c-0.7,0.8-1.6,1.2-2.7,1.2c-0.8,0-1.4-0.1-2-0.4c-0.6-0.2-1.2-0.6-1.8-1.2l1.4-2.8
					c0.1,0.1,0.2,0.1,0.3,0.3c0.8,0.8,1.4,1.1,1.9,1.1c0.3,0,0.5-0.1,0.7-0.3c0.2-0.2,0.3-0.4,0.3-0.7c0-0.3-0.1-0.5-0.4-0.8
					c-0.3-0.3-0.8-0.8-1.6-1.4c-0.8-0.6-1.4-1.2-1.8-1.8c-0.4-0.6-0.6-1.3-0.6-2.1c0-1.2,0.3-2.3,1-3.1c0.7-0.8,1.6-1.2,2.7-1.2
					c1.2,0,2.4,0.5,3.6,1.5L390,423.5z"/>
				<path class="st5" d="M401.9,427.4h-5.7c0.1,1.5,0.2,2.4,0.4,2.9c0.2,0.5,0.6,0.7,1.1,0.7c0.7,0,1.1-0.5,1.1-1.6h2.8
					c-0.1,1.4-0.5,2.5-1.3,3.3c-0.7,0.8-1.7,1.1-2.9,1.1c-1.5,0-2.7-0.6-3.5-1.9c-0.8-1.2-1.2-3.1-1.2-5.4c0-2.1,0.4-3.8,1.3-5.1
					c0.9-1.3,2-1.9,3.5-1.9c1,0,1.9,0.4,2.5,1.1c0.7,0.7,1.1,1.6,1.3,2.7C401.8,424.2,401.9,425.6,401.9,427.4 M398.9,425.2
					c0-1.2-0.1-2-0.3-2.6c-0.2-0.5-0.5-0.8-0.9-0.8c-0.5,0-0.9,0.3-1.1,0.8c-0.2,0.5-0.3,1.4-0.3,2.6H398.9z"/>
				<path class="st5" d="M325.9,407.5c0.3-0.5,0.6-0.7,0.9-0.7c0.7,0.1,1.4,1.3,2.1,3.6l0.4-8.5c-0.8-1.3-1.6-2-2.5-2.1
					c-1.1-0.1-2.1,0.7-2.9,2.3c-0.8,1.6-1.3,3.8-1.4,6.3c-0.1,1.2,0,2.4,0.1,3.6c0.1,1.2,0.3,2.4,0.6,3.6c0.3,1.2,0.9,3,1.9,5.5
					c0.6,1.5,0.9,2.9,0.8,4.1c0,0.8-0.2,1.5-0.5,2c-0.3,0.5-0.7,0.8-1.1,0.7c-0.9-0.1-1.8-1.4-2.5-3.9l-0.4,8
					c0.9,1.8,1.8,2.8,2.8,2.9c1.2,0.1,2.2-0.8,3.1-2.6c0.9-1.8,1.4-4.3,1.5-7.2c0.1-1.5,0-2.9-0.1-4.2c-0.1-1.3-0.4-2.4-0.7-3.4
					c-0.3-1-0.8-2.3-1.6-4c-0.7-1.7-1-3.1-1-4.3C325.4,408.5,325.6,408,325.9,407.5 M326.5,402.1c0.5,0,1,0.6,1,1.2
					c0,0.7-0.4,1.2-1,1.2c-0.5,0-1-0.6-1-1.2C325.5,402.6,325.9,402.1,326.5,402.1"/>
				<path class="st6" d="M326.1,403.7c0.1-0.4,0.4-0.6,0.7-0.6c0.3,0.1,0.5,0.5,0.5,0.9c-0.1,0.4-0.4,0.6-0.7,0.6
					C326.3,404.5,326.1,404.1,326.1,403.7"/>
			</g>
			<g class="st2">
				<text transform="matrix(1 0 0 1 332.459 481.0898)"><tspan x="0" y="0" class="st7 st8 st9">R</tspan><tspan x="4.6" y="0" class="st7 st8 st9">e</tspan><tspan x="8.5" y="0" class="st7 st8 st9">a</tspan><tspan x="12.4" y="0" class="st7 st8 st9">l</tspan><tspan x="14.3" y="0" class="st7 st8 st9">-</tspan><tspan x="17.2" y="0" class="st7 st8 st9">t</tspan><tspan x="20" y="0" class="st7 st8 st9">i</tspan><tspan x="21.8" y="0" class="st7 st8 st9">m</tspan><tspan x="28" y="0" class="st7 st8 st9">e </tspan><tspan x="33.9" y="0" class="st7 st8 st9">Li</tspan><tspan x="39.6" y="0" class="st7 st8 st9">v</tspan><tspan x="43.5" y="0" class="st7 st8 st9">e </tspan><tspan x="49.5" y="0" class="st7 st8 st9">C</tspan><tspan x="54" y="0" class="st7 st8 st9">e</tspan><tspan x="57.9" y="0" class="st7 st8 st9">l</tspan><tspan x="59.8" y="0" class="st7 st8 st9">l</tspan></text>
			</g>
			<g class="st2">
				<text transform="matrix(1 0 0 1 340.8916 491.8652)"><tspan x="0" y="0" class="st7 st8 st9">M</tspan><tspan x="5.4" y="0" class="st7 st8 st9">e</tspan><tspan x="9.4" y="0" class="st7 st8 st9">t</tspan><tspan x="12.2" y="0" class="st7 st8 st9">a</tspan><tspan x="16.1" y="0" class="st7 st8 st9">bo</tspan><tspan x="24.1" y="0" class="st7 st8 st9">l</tspan><tspan x="25.9" y="0" class="st7 st8 st9">i</tspan><tspan x="27.8" y="0" class="st7 st8 st9">c </tspan><tspan x="33.8" y="0" class="st7 st8 st9">A</tspan><tspan x="38.3" y="0" class="st7 st8 st9">n</tspan><tspan x="42.4" y="0" class="st7 st8 st9">a</tspan><tspan x="46.2" y="0" class="st7 st8 st9">l</tspan><tspan x="48.2" y="0" class="st7 st8 st9">y</tspan><tspan x="52.1" y="0" class="st7 st8 st9">s</tspan><tspan x="55.9" y="0" class="st7 st8 st9">i</tspan><tspan x="57.8" y="0" class="st7 st8 st9">s</tspan></text>
			</g>
			<rect x="311.3" y="461" class="st10" width="4.2" height="23.7"/>
			<rect x="319.4" y="451.5" class="st10" width="4.2" height="33.2"/>
			<rect x="303.3" y="470.1" class="st10" width="4.2" height="14.6"/>
		</g>
	</g>
</g>
<g id="rSeahorse">
	<linearGradient id="SVGID_8_" gradientUnits="userSpaceOnUse" x1="332.2992" y1="290.0733" x2="341.2992" y2="649.0733">
		<stop  offset="0" style="stop-color:#FFF33B"/>
		<stop  offset="5.948725e-02" style="stop-color:#FFE029"/>
		<stop  offset="0.1303" style="stop-color:#FFD218"/>
		<stop  offset="0.2032" style="stop-color:#FEC90F"/>
		<stop  offset="0.2809" style="stop-color:#FDC70C"/>
		<stop  offset="0.6685" style="stop-color:#F3903F"/>
		<stop  offset="0.8876" style="stop-color:#ED683C"/>
		<stop  offset="1" style="stop-color:#E93E3A"/>
	</linearGradient>
	<polygon class="st11" points="335.5,246.8 186.8,332.3 186.8,503.3 335.5,589.3 484.3,504.6 484.3,332.3 	"/>
	<path class="st12" d="M257.2,361.6c-1.1-0.3-1.9-0.4-2.4-0.4c-3.2,0-4.9,2.1-4.9,6.2v15.8h-6.8v-29h6.4v6.9h0.1
		c1.1-5.1,3.6-7.7,7.6-7.8V361.6z"/>
	<path class="st12" d="M301.3,370.4h-12.1c0.1,3.1,0.4,5.2,0.9,6.2s1.3,1.5,2.4,1.5c1.5,0,2.3-1.2,2.4-3.5h6c-0.2,3-1.1,5.4-2.7,7
		c-1.5,1.6-3.6,2.4-6.1,2.4c-3.3,0-5.7-1.3-7.4-4c-1.7-2.6-2.5-6.5-2.5-11.6c0-4.5,0.9-8.2,2.8-11c1.9-2.8,4.3-4.2,7.4-4.2
		c2.2,0,4,0.8,5.4,2.3c1.4,1.5,2.4,3.4,2.9,5.7C301.1,363.6,301.3,366.6,301.3,370.4z M294.9,365.7c0-2.5-0.2-4.3-0.6-5.4
		c-0.4-1.2-1.1-1.8-2-1.8c-1.1,0-1.9,0.6-2.3,1.7c-0.5,1.2-0.7,3-0.7,5.5H294.9z"/>
	<path class="st12" d="M324.5,383.2h-6.8v-4.9h-0.1c-1.1,3.8-3,5.8-5.6,5.8c-1.9,0-3.5-1.1-4.9-3.3c-1.4-2.2-2.1-6.1-2.1-11.8
		c0-10.4,2.4-15.7,7.1-15.7c2.6,0,4.4,2,5.4,6h0.1v-5.2h6.9V383.2z M314.4,360.6c-1.6,0-2.4,2.5-2.4,7.4c0,3,0.2,5.1,0.7,6.4
		s1.2,2,2.2,2c1,0,1.7-0.6,2.1-1.8c0.4-1.2,0.6-3.2,0.6-5.9c0-2.8-0.2-4.9-0.7-6.2c-0.5-1.3-1.3-2-2.4-2H314.4z"/>
	<path class="st12" d="M349.2,383.2h-6.8v-16.1c0-3.6-1-5.4-2.9-5.4c-0.9,0-1.6,0.5-2.1,1.4c-0.5,0.9-0.7,2.1-0.7,3.7v16.4h-6.8V338
		h6.8v21.5h0.1c2-4.2,4.2-6.3,6.7-6.3c1.8,0,3.2,1,4.2,2.9s1.5,4.7,1.5,8.2V383.2z"/>
	<path class="st12" d="M353.4,369c0-5.1,0.9-8.9,2.6-11.6c1.7-2.7,4.2-4,7.3-4c3.2,0,5.6,1.3,7.3,4c1.7,2.6,2.5,6.5,2.5,11.5
		c0,4.9-0.8,8.7-2.5,11.3s-4.1,3.9-7.2,3.9c-3.3,0-5.8-1.3-7.5-3.9C354.3,377.6,353.4,373.9,353.4,369z M366.2,368.8
		c0-3.2-0.2-5.4-0.5-6.7c-0.4-1.3-1.1-1.9-2.3-1.9c-1.1,0-1.8,0.6-2.3,1.8c-0.4,1.2-0.7,3.2-0.7,5.9c0,3.4,0.2,5.8,0.6,7.2
		c0.4,1.4,1.2,2.1,2.3,2.1c1.1,0,1.9-0.6,2.3-1.9C366,374.1,366.2,371.9,366.2,368.8z"/>
	<path class="st12" d="M391.7,361.6c-1.1-0.3-1.9-0.4-2.4-0.4c-3.2,0-4.9,2.1-4.9,6.2v15.8h-6.8v-29h6.4v6.9h0.1
		c1.1-5.1,3.6-7.7,7.6-7.8V361.6z"/>
	<path class="st12" d="M407.7,362.2c-1.9-1.8-3.4-2.7-4.5-2.7c-1.3,0-2,0.6-2,1.9c0,0.8,1.1,1.9,3.2,3.3s3.7,2.9,4.7,4.5
		c1,1.6,1.5,3.6,1.5,5.9c0,2.6-0.7,4.7-2.2,6.4s-3.4,2.5-5.7,2.5c-1.6,0-3.1-0.3-4.3-0.8c-1.2-0.5-2.5-1.4-3.9-2.6l2.9-6
		c0.2,0.1,0.4,0.3,0.6,0.5c1.7,1.6,3,2.4,4.1,2.4c0.6,0,1.1-0.2,1.5-0.6s0.6-0.9,0.6-1.6c0-0.6-0.3-1.2-0.9-1.8s-1.8-1.6-3.5-2.9
		s-3-2.6-3.8-3.8c-0.8-1.3-1.2-2.8-1.2-4.5c0-2.7,0.7-4.8,2.2-6.5s3.4-2.6,5.7-2.6c2.6,0,5.1,1.1,7.6,3.2L407.7,362.2z"/>
	<path class="st12" d="M433.1,370.4h-12.1c0.1,3.1,0.4,5.2,0.9,6.2s1.3,1.5,2.4,1.5c1.5,0,2.3-1.2,2.4-3.5h6c-0.2,3-1.1,5.4-2.7,7
		c-1.5,1.6-3.6,2.4-6.1,2.4c-3.3,0-5.7-1.3-7.4-4c-1.7-2.6-2.5-6.5-2.5-11.6c0-4.5,0.9-8.2,2.8-11c1.9-2.8,4.3-4.2,7.4-4.2
		c2.2,0,4,0.8,5.4,2.3c1.4,1.5,2.4,3.4,2.9,5.7C432.9,363.6,433.1,366.6,433.1,370.4z M426.7,365.7c0-2.5-0.2-4.3-0.6-5.4
		c-0.4-1.2-1.1-1.8-2-1.8c-1.1,0-1.9,0.6-2.3,1.7c-0.5,1.2-0.7,3-0.7,5.5H426.7z"/>
	<g>
		<path class="st12" d="M270.9,327.9c0.6-1.1,1.2-1.6,1.9-1.5c1.5,0.1,3,2.7,4.4,7.6l0.9-18.1c-1.7-2.8-3.5-4.3-5.3-4.4
			c-2.4-0.2-4.5,1.4-6.2,4.9c-1.8,3.5-2.8,8-3.1,13.6c-0.1,2.6-0.1,5.2,0.1,7.7c0.2,2.6,0.7,5.1,1.3,7.7c0.6,2.5,2,6.5,4.1,11.7
			c1.3,3.3,1.9,6.2,1.8,8.8c-0.1,1.7-0.5,3.2-1.1,4.3c-0.6,1.1-1.4,1.7-2.3,1.6c-1.9-0.2-3.7-2.9-5.4-8.3l-0.9,17.1
			c1.8,3.9,3.8,6,5.9,6.1c2.6,0.2,4.8-1.6,6.6-5.6c1.8-3.9,2.9-9.1,3.3-15.5c0.2-3.2,0.1-6.3-0.2-9c-0.3-2.8-0.8-5.2-1.4-7.3
			s-1.7-4.9-3.3-8.6c-1.5-3.6-2.2-6.6-2.1-9.1C270,330.2,270.3,329,270.9,327.9z M272.2,316.3c1.2,0,2.1,1.2,2.1,2.7
			c0,1.5-0.9,2.7-2.1,2.7c-1.1,0-2.1-1.2-2.1-2.7C270.2,317.5,271.1,316.3,272.2,316.3z"/>
		<ellipse cx="272.7" cy="320.2" rx="1.3" ry="1.5"/>
	</g>
</g>
<g id="Text_x5F_Real">
	<text transform="matrix(1 0 0 1 285 485)" class="st7 st8 st13">Real-time Live Cell</text>
	<polygon class="st14" points="265,434 262,434 262,434 265,434 	"/>
	<text transform="matrix(1 0 0 1 303 508)" class="st7 st8 st13">Metabolic Analysis</text>
</g>
<g id="middle">
	<g>
		<rect x="239.9" y="442.1" class="st15" width="8.9" height="50.6"/>
		<rect x="257.2" y="421.9" class="st15" width="8.9" height="70.9"/>
		<rect x="222.7" y="461.5" class="st15" width="8.9" height="31.2"/>
	</g>
	<path class="st15" d="M108.8,253.4"/>
</g>
</svg>
